# xmcd CD database file
#
# Track frame offsets:
#	150
#	37000
#	70425
#	89208
#	128063
#	160350
#
# Disc length: 2558 seconds
#
# Revision: 3
# Processed by: cddbd v1.5.1PL0 Copyright (c) Steve Scherf et al.
# Submitted via: CDex 1.51
#
DISCID=5709fc06
DTITLE=モーツァルト - モーツァルト：ヴァイオリン協奏曲 第2番、第4番
DYEAR=1990
DGENRE=Classical
TTITLE0=ヴァイオリン協奏曲 第2番 ニ長調 K.211 第1楽章：Allegro moderato
TTITLE1=ヴァイオリン協奏曲 第2番 ニ長調 K.211 第2楽章：Andante
TTITLE2=ヴァイオリン協奏曲 第2番 ニ長調 K.211 第3楽章：Rondeau. Allegro
TTITLE3=ヴァイオリン協奏曲 第4番 ニ長調 K.218 第1楽章：Allegro
TTITLE4=ヴァイオリン協奏曲 第4番 ニ長調 K.218 第2楽章：Andante cantabile
TTITLE5=ヴァイオリン協奏曲 第4番 ニ長調 K.218 第3楽章：Rondeau. Andante grazioso
EXTD=YEAR: 1990/8/25
EXTT0=
EXTT1=
EXTT2=
EXTT3=
EXTT4=
EXTT5=
PLAYORDER=
